<svg width="20" height="21" viewBox="0 0 20 21" fill="none" xmlns="http://www.w3.org/2000/svg">
<g clip-path="url(#clip0_104809_2)">
<path d="M18.1429 1.75L1.8529 1.75C1.10647 1.75 0.5 2.31641 0.5 3.01172L0.5 17.9883C0.5 18.6836 1.10647 19.25 1.8529 19.25L18.1429 19.25C18.8893 19.25 19.5 18.6836 19.5 17.9883L19.5 3.01172C19.5 2.31641 18.8893 1.75 18.1429 1.75ZM6.24241 16.75H3.42634L3.42634 8.39844H6.24665L6.24665 16.75H6.24241ZM4.83437 7.25781C3.93103 7.25781 3.20156 6.58203 3.20156 5.75391C3.20156 4.92578 3.93103 4.25 4.83437 4.25C5.73348 4.25 6.46719 4.92578 6.46719 5.75391C6.46719 6.58594 5.73772 7.25781 4.83437 7.25781ZM16.7984 16.75H13.9824L13.9824 12.6875C13.9824 11.7188 13.9612 10.4727 12.5192 10.4727C11.0518 10.4727 10.827 11.5273 10.827 12.6172L10.827 16.75H8.01094L8.01094 8.39844H10.7125V9.53906H10.7507C11.1281 8.88281 12.0484 8.19141 13.4183 8.19141C16.2683 8.19141 16.7984 9.92187 16.7984 12.1719V16.75Z" fill="black"/>
</g>
<defs>
<clipPath id="clip0_104809_2">
<rect width="19" height="20" fill="white" transform="translate(0.5 0.5)"/>
</clipPath>
</defs>
</svg>
