<svg width="20" height="19" viewBox="0 0 20 19" fill="none" xmlns="http://www.w3.org/2000/svg">
<path d="M1.25 1.35714L1.25 17.6471C1.25 18.3935 1.81641 19 2.51172 19L17.4883 19C18.1836 19 18.75 18.3935 18.75 17.6471L18.75 1.35714C18.75 0.610715 18.1836 7.15256e-07 17.4883 7.15256e-07L2.51172 7.15256e-07C1.81641 7.15256e-07 1.25 0.610715 1.25 1.35714ZM16.25 13.2576V16.0737L7.89844 16.0737V13.2533L16.25 13.2533V13.2576ZM6.75781 14.6656C6.75781 15.569 6.08203 16.2984 5.25391 16.2984C4.42578 16.2984 3.75 15.569 3.75 14.6656C3.75 13.7665 4.42578 13.0328 5.25391 13.0328C6.08594 13.0328 6.75781 13.7623 6.75781 14.6656ZM16.25 2.70156L16.25 5.51763L12.1875 5.51763C11.2188 5.51763 9.97266 5.53884 9.97266 6.9808C9.97266 8.44821 11.0273 8.67299 12.1172 8.67299L16.25 8.67299V11.4891L7.89844 11.4891V8.7875H9.03906V8.74933C8.38281 8.37188 7.69141 7.45156 7.69141 6.0817C7.69141 3.2317 9.42187 2.70156 11.6719 2.70156H16.25Z" fill="black"/>
</svg>
